<svg width="12" height="13" viewBox="0 0 12 13" fill="none" xmlns="http://www.w3.org/2000/svg">
<path fill-rule="evenodd" clip-rule="evenodd" d="M2.625 0.333374C2.72446 0.333374 2.81984 0.372883 2.89016 0.443209C2.96049 0.513535 3 0.608918 3 0.708374V1.08337H9V0.708374C9 0.608918 9.03951 0.513535 9.10983 0.443209C9.18016 0.372883 9.27554 0.333374 9.375 0.333374C9.47446 0.333374 9.56984 0.372883 9.64017 0.443209C9.71049 0.513535 9.75 0.608918 9.75 0.708374V1.08337H10.5C10.8978 1.08337 11.2794 1.24141 11.5607 1.52271C11.842 1.80402 12 2.18555 12 2.58337V10.8334C12 11.2312 11.842 11.6127 11.5607 11.894C11.2794 12.1753 10.8978 12.3334 10.5 12.3334H1.5C1.10218 12.3334 0.720644 12.1753 0.43934 11.894C0.158035 11.6127 0 11.2312 0 10.8334V2.58337C0 2.18555 0.158035 1.80402 0.43934 1.52271C0.720644 1.24141 1.10218 1.08337 1.5 1.08337H2.25V0.708374C2.25 0.608918 2.28951 0.513535 2.35984 0.443209C2.43016 0.372883 2.52554 0.333374 2.625 0.333374V0.333374ZM0.75 3.33337V10.8334C0.75 11.0323 0.829018 11.2231 0.96967 11.3637C1.11032 11.5044 1.30109 11.5834 1.5 11.5834H10.5C10.6989 11.5834 10.8897 11.5044 11.0303 11.3637C11.171 11.2231 11.25 11.0323 11.25 10.8334V3.33337H0.75Z" fill="black"/>
</svg>
