<svg width="150" height="150" viewBox="0 0 150 150" fill="none" xmlns="http://www.w3.org/2000/svg">
<path fill-rule="evenodd" clip-rule="evenodd" d="M37.5 0H112.5C117.473 0 122.242 1.97544 125.758 5.49175C129.275 9.00805 131.25 13.7772 131.25 18.75V131.25C131.25 136.223 129.275 140.992 125.758 144.508C122.242 148.025 117.473 150 112.5 150H37.5C32.5272 150 27.7581 148.025 24.2417 144.508C20.7254 140.992 18.75 136.223 18.75 131.25V18.75C18.75 13.7772 20.7254 9.00805 24.2417 5.49175C27.7581 1.97544 32.5272 0 37.5 0V0ZM37.5 9.375C35.0136 9.375 32.629 10.3627 30.8709 12.1209C29.1127 13.879 28.125 16.2636 28.125 18.75V131.25C28.125 133.736 29.1127 136.121 30.8709 137.879C32.629 139.637 35.0136 140.625 37.5 140.625H112.5C114.986 140.625 117.371 139.637 119.129 137.879C120.887 136.121 121.875 133.736 121.875 131.25V18.75C121.875 16.2636 120.887 13.879 119.129 12.1209C117.371 10.3627 114.986 9.375 112.5 9.375H37.5Z" fill="#54595E"/>
<path fill-rule="evenodd" clip-rule="evenodd" d="M57.6266 57.6178C58.0621 57.1813 58.5793 56.835 59.1488 56.5987C59.7183 56.3624 60.3288 56.2407 60.9454 56.2407C61.562 56.2407 62.1725 56.3624 62.742 56.5987C63.3114 56.835 63.8287 57.1813 64.2641 57.6178L75.0079 68.371L85.7516 57.6178C86.1875 57.182 86.7049 56.8363 87.2743 56.6004C87.8437 56.3646 88.454 56.2432 89.0704 56.2432C89.6867 56.2432 90.2971 56.3646 90.8665 56.6004C91.4359 56.8363 91.9533 57.182 92.3891 57.6178C92.825 58.0537 93.1707 58.5711 93.4065 59.1405C93.6424 59.7099 93.7638 60.3203 93.7638 60.9366C93.7638 61.5529 93.6424 62.1633 93.4065 62.7327C93.1707 63.3021 92.825 63.8195 92.3891 64.2554L81.636 74.9991L92.3891 85.7428C93.2693 86.623 93.7638 87.8168 93.7638 89.0616C93.7638 90.3064 93.2693 91.5002 92.3891 92.3803C91.5089 93.2605 90.3152 93.755 89.0704 93.755C87.8256 93.755 86.6318 93.2605 85.7516 92.3803L75.0079 81.6272L64.2641 92.3803C63.384 93.2605 62.1902 93.755 60.9454 93.755C59.7006 93.755 58.5068 93.2605 57.6266 92.3803C56.7465 91.5002 56.252 90.3064 56.252 89.0616C56.252 87.8168 56.7465 86.623 57.6266 85.7428L68.3798 74.9991L57.6266 64.2554C57.1901 63.8199 56.8438 63.3027 56.6075 62.7332C56.3711 62.1637 56.2495 61.5532 56.2495 60.9366C56.2495 60.32 56.3711 59.7095 56.6075 59.14C56.8438 58.5705 57.1901 58.0533 57.6266 57.6178Z" fill="#54595E"/>
</svg>
