<svg width="24" height="28" viewBox="0 0 24 28" fill="none" xmlns="http://www.w3.org/2000/svg">
<path d="M3.71753 25.5988V1.72192H14.6782L20.2875 7.32595V25.5988H3.71753Z" fill="white"/>
<path d="M14.4406 2.29613L19.7133 7.56403V25.0247H4.29174V2.29613H14.4406ZM14.916 1.14771H3.14331V26.1731H20.8616V7.08793L14.916 1.14771Z" fill="black"/>
<path d="M3.71753 25.5988V1.72192H14.6782L14.8083 1.85184V7.20113H20.1625L20.2875 7.32595V25.5988H3.71753Z" fill="white"/>
<path d="M14.2341 2.29613V6.62691V7.77534H15.3825H19.7133V25.0247H4.29174V2.29613H14.2341ZM14.916 1.14771H3.14331V26.1731H20.8616V7.08793L20.4001 6.62684H15.3824V1.61382L14.916 1.14771Z" fill="black"/>
<path d="M15.7651 6.29841V3.49316L18.5404 6.20007V6.29841H15.7651Z" fill="black"/>
<path d="M16.3393 4.85541L17.2301 5.72419H16.3393V4.85541ZM15.9803 2.901H15.1909V6.87261H19.1147V5.95804L15.9803 2.901Z" fill="black"/>
<path d="M1.61816 20.4197V12.0357L2.67665 10.9772V12.3089H21.3281V10.9772L22.3866 12.0357V20.4197H1.61816Z" fill="#ED1C24"/>
<path d="M21.7947 12.1035L21.9201 12.2289V19.9532H2.08471V12.2289L2.2101 12.1035V12.7754H3.1432H20.8615H21.7946V12.1035M20.8616 9.85077V11.8424H3.1432V9.85077L1.15161 11.8424V20.8863H22.8532V11.8424L20.8616 9.85077Z" fill="#ED1C24"/>
<path d="M4.18173 18.9624V13.8715H6.19025C6.57638 13.8715 6.90533 13.9452 7.17711 14.0927C7.44889 14.2386 7.65604 14.4416 7.79856 14.7017C7.94274 14.9603 8.01483 15.2586 8.01483 15.5966C8.01483 15.9347 7.94191 16.233 7.79608 16.4915C7.65024 16.75 7.43895 16.9514 7.1622 17.0956C6.8871 17.2397 6.55401 17.3118 6.16291 17.3118H4.88272V16.4493H5.9889C6.19605 16.4493 6.36674 16.4136 6.50098 16.3424C6.63687 16.2695 6.73796 16.1692 6.80424 16.0416C6.87219 15.9123 6.90616 15.764 6.90616 15.5966C6.90616 15.4276 6.87219 15.2801 6.80424 15.1542C6.73796 15.0266 6.63687 14.928 6.50098 14.8584C6.36509 14.7871 6.19274 14.7515 5.98393 14.7515H5.25808V18.9624H4.18173ZM10.5186 18.9624H8.71396V13.8715H10.5336C11.0456 13.8715 11.4864 13.9734 11.856 14.1772C12.2256 14.3794 12.5098 14.6703 12.7086 15.0498C12.9092 15.4293 13.0094 15.8833 13.0094 16.412C13.0094 16.9423 12.9092 17.398 12.7086 17.7792C12.5098 18.1603 12.2239 18.4528 11.851 18.6566C11.4798 18.8605 11.0357 18.9624 10.5186 18.9624ZM9.79031 18.0402H10.4739C10.7921 18.0402 11.0597 17.9838 11.2768 17.8711C11.4956 17.7568 11.6596 17.5803 11.769 17.3417C11.88 17.1014 11.9355 16.7915 11.9355 16.412C11.9355 16.0358 11.88 15.7284 11.769 15.4897C11.6596 15.2511 11.4964 15.0754 11.2793 14.9628C11.0622 14.8501 10.7946 14.7937 10.4764 14.7937H9.79031V18.0402ZM13.8067 18.9624V13.8715H17.1775V14.7589H14.8831V15.972H16.9537V16.8594H14.8831V18.9624H13.8067Z" fill="white"/>
</svg>
