<svg width="390" height="260" viewBox="0 0 390 260" fill="none" xmlns="http://www.w3.org/2000/svg">
<g clip-path="url(#clip0_3055_2643)">
<path d="M307.544 34.6788C270.254 29.822 249.08 50.5024 198.947 52.754C149.157 48.88 130.172 27.5028 92.4352 31.122C51.8336 35.0116 20.384 87.9164 29.3332 140.842C38.2824 193.768 93.7404 223.35 122.091 223.168C144.752 223.023 164.767 213.808 190.606 211.593C216.164 214.651 235.18 224.515 257.785 225.41C286.068 226.533 344.531 198.827 359.018 146.292C373.506 93.756 347.667 39.8996 307.544 34.6788Z" fill="#407BFF"/>
<path opacity="0.7" d="M307.544 34.6788C270.254 29.822 249.08 50.5024 198.947 52.754C149.157 48.88 130.172 27.5028 92.4352 31.122C51.8336 35.0116 20.384 87.9164 29.3332 140.842C38.2824 193.768 93.7404 223.35 122.091 223.168C144.752 223.023 164.767 213.808 190.606 211.593C216.164 214.651 235.18 224.515 257.785 225.41C286.068 226.533 344.531 198.827 359.018 146.292C373.506 93.756 347.667 39.8996 307.544 34.6788Z" fill="white"/>
<path d="M287.373 214.209C286.161 213.741 284.996 213.372 284.253 212.228C283.665 211.318 283.364 210.023 284.544 209.451C286.14 208.676 287.742 210.699 288.267 212.004C288.595 212.805 288.959 213.907 289.182 214.604C289.136 213.835 289.068 213.2 289.016 212.784L288.959 212.347C288.72 211.794 288.44 211.258 288.122 210.746C287.492 209.607 286.837 208.577 287.004 207.22C287.134 206.149 287.742 204.963 289.011 205.286C290.732 205.717 290.654 208.297 290.222 209.633C289.916 210.574 289.396 211.864 289.151 212.467C289.208 212.873 289.318 213.788 289.375 214.947C289.673 214.402 289.924 213.831 290.124 213.242C290.644 212.041 291.008 210.881 292.167 210.158C293.082 209.586 294.388 209.316 294.934 210.507C295.677 212.119 293.623 213.679 292.334 214.178C291.382 214.542 290.004 214.963 289.411 215.14C289.468 216.331 289.444 217.524 289.338 218.712C289.338 218.78 289.338 218.853 289.338 218.925C289.769 218.467 290.157 217.971 290.498 217.443C291.268 216.403 291.933 215.363 293.233 214.963C294.273 214.63 295.594 214.687 295.833 215.977C296.156 217.724 293.779 218.733 292.386 218.894C291.372 219.009 289.936 219.076 289.312 219.102C289.229 219.695 289.084 220.376 288.917 221.141C288.751 221.905 288.564 222.773 288.397 223.699C288.803 223.699 289.682 222.305 289.89 222.03C290.659 220.99 291.325 219.95 292.625 219.544C293.665 219.217 294.986 219.274 295.225 220.584C295.547 222.326 293.171 223.335 291.777 223.496C290.472 223.652 288.454 223.715 288.397 223.72L288.428 223.777L288.392 223.73C288.208 224.808 288.1 225.898 288.07 226.991C288.558 226.876 289.557 225.977 289.796 225.784C290.836 224.978 291.725 224.162 293.093 224.105C294.169 224.058 295.438 224.463 295.329 225.769C295.183 227.537 292.63 227.885 291.236 227.677C290.134 227.511 288.553 227.157 288.07 227.037C288.036 228.326 288.152 229.613 288.413 230.875C289.011 230.548 289.567 230.148 290.066 229.684C291.106 228.878 291.996 228.067 293.363 228.01C294.44 227.963 295.708 228.363 295.599 229.669C295.454 231.437 292.9 231.79 291.507 231.577C290.467 231.421 289.006 231.093 288.434 230.963C288.811 232.692 289.477 234.344 290.404 235.851L290.254 235.945C289.322 234.428 288.65 232.765 288.267 231.026C287.841 230.87 286.437 231.322 286.12 231.405C284.861 231.723 283.702 232.097 282.428 231.587C281.424 231.192 280.436 230.303 281.065 229.154C281.923 227.594 284.398 228.327 285.584 229.091C286.567 229.721 287.94 230.761 288.262 231.005V230.917H288.205H288.257C287.991 229.638 287.874 228.333 287.908 227.027C287.456 226.829 286.099 226.991 285.787 227.027C284.487 227.095 283.275 227.235 282.147 226.507C281.242 225.919 280.441 224.859 281.284 223.855C282.422 222.498 284.71 223.689 285.724 224.661C286.52 225.431 287.591 226.621 287.929 227.006C287.963 225.881 288.078 224.761 288.272 223.652C287.645 223.414 286.993 223.248 286.328 223.158C285.054 222.893 283.847 222.716 282.927 221.707C282.199 220.907 281.694 219.674 282.766 218.92C284.216 217.88 286.125 219.638 286.853 220.839C287.373 221.681 288.002 222.919 288.298 223.491C288.444 222.649 288.616 221.869 288.766 221.156C288.917 220.444 289.073 219.737 289.156 219.159H289.026C289.075 219.155 289.121 219.139 289.162 219.113V219.081C288.756 218.806 287.388 218.712 287.082 218.671C285.792 218.499 284.575 218.411 283.587 217.469C282.802 216.726 282.209 215.535 283.223 214.703C284.596 213.58 286.624 215.176 287.44 216.32C288.08 217.22 288.907 218.582 289.177 219.029C289.177 218.931 289.177 218.832 289.208 218.743C289.313 217.578 289.339 216.407 289.286 215.239L289.162 215.27C289.207 215.255 289.248 215.231 289.281 215.197C289.281 215.155 289.281 215.109 289.281 215.067C288.682 214.705 288.041 214.417 287.373 214.209Z" fill="#263238"/>
<path opacity="0.5" d="M287.373 214.209C286.161 213.741 284.996 213.372 284.253 212.228C283.665 211.318 283.364 210.023 284.544 209.451C286.14 208.676 287.742 210.699 288.267 212.004C288.595 212.805 288.959 213.907 289.182 214.604C289.136 213.835 289.068 213.2 289.016 212.784L288.959 212.347C288.72 211.794 288.44 211.258 288.122 210.746C287.492 209.607 286.837 208.577 287.004 207.22C287.134 206.149 287.742 204.963 289.011 205.286C290.732 205.717 290.654 208.297 290.222 209.633C289.916 210.574 289.396 211.864 289.151 212.467C289.208 212.873 289.318 213.788 289.375 214.947C289.673 214.402 289.924 213.831 290.124 213.242C290.644 212.041 291.008 210.881 292.167 210.158C293.082 209.586 294.388 209.316 294.934 210.507C295.677 212.119 293.623 213.679 292.334 214.178C291.382 214.542 290.004 214.963 289.411 215.14C289.468 216.331 289.444 217.524 289.338 218.712C289.338 218.78 289.338 218.853 289.338 218.925C289.769 218.467 290.157 217.971 290.498 217.443C291.268 216.403 291.933 215.363 293.233 214.963C294.273 214.63 295.594 214.687 295.833 215.977C296.156 217.724 293.779 218.733 292.386 218.894C291.372 219.009 289.936 219.076 289.312 219.102C289.229 219.695 289.084 220.376 288.917 221.141C288.751 221.905 288.564 222.773 288.397 223.699C288.803 223.699 289.682 222.305 289.89 222.03C290.659 220.99 291.325 219.95 292.625 219.544C293.665 219.217 294.986 219.274 295.225 220.584C295.547 222.326 293.171 223.335 291.777 223.496C290.472 223.652 288.454 223.715 288.397 223.72L288.428 223.777L288.392 223.73C288.208 224.808 288.1 225.898 288.07 226.991C288.558 226.876 289.557 225.977 289.796 225.784C290.836 224.978 291.725 224.162 293.093 224.105C294.169 224.058 295.438 224.463 295.329 225.769C295.183 227.537 292.63 227.885 291.236 227.677C290.134 227.511 288.553 227.157 288.07 227.037C288.036 228.326 288.152 229.613 288.413 230.875C289.011 230.548 289.567 230.148 290.066 229.684C291.106 228.878 291.996 228.067 293.363 228.01C294.44 227.963 295.708 228.363 295.599 229.669C295.454 231.437 292.9 231.79 291.507 231.577C290.467 231.421 289.006 231.093 288.434 230.963C288.811 232.692 289.477 234.344 290.404 235.851L290.254 235.945C289.322 234.428 288.65 232.765 288.267 231.026C287.841 230.87 286.437 231.322 286.12 231.405C284.861 231.723 283.702 232.097 282.428 231.587C281.424 231.192 280.436 230.303 281.065 229.154C281.923 227.594 284.398 228.327 285.584 229.091C286.567 229.721 287.94 230.761 288.262 231.005V230.917H288.205H288.257C287.991 229.638 287.874 228.333 287.908 227.027C287.456 226.829 286.099 226.991 285.787 227.027C284.487 227.095 283.275 227.235 282.147 226.507C281.242 225.919 280.441 224.859 281.284 223.855C282.422 222.498 284.71 223.689 285.724 224.661C286.52 225.431 287.591 226.621 287.929 227.006C287.963 225.881 288.078 224.761 288.272 223.652C287.645 223.414 286.993 223.248 286.328 223.158C285.054 222.893 283.847 222.716 282.927 221.707C282.199 220.907 281.694 219.674 282.766 218.92C284.216 217.88 286.125 219.638 286.853 220.839C287.373 221.681 288.002 222.919 288.298 223.491C288.444 222.649 288.616 221.869 288.766 221.156C288.917 220.444 289.073 219.737 289.156 219.159H289.026C289.075 219.155 289.121 219.139 289.162 219.113V219.081C288.756 218.806 287.388 218.712 287.082 218.671C285.792 218.499 284.575 218.411 283.587 217.469C282.802 216.726 282.209 215.535 283.223 214.703C284.596 213.58 286.624 215.176 287.44 216.32C288.08 217.22 288.907 218.582 289.177 219.029C289.177 218.931 289.177 218.832 289.208 218.743C289.313 217.578 289.339 216.407 289.286 215.239L289.162 215.27C289.207 215.255 289.248 215.231 289.281 215.197C289.281 215.155 289.281 215.109 289.281 215.067C288.682 214.705 288.041 214.417 287.373 214.209Z" fill="#263238"/>
<path d="M308.272 221.452C307.601 220.797 306.93 220.225 306.764 219.258C306.628 218.494 306.795 217.547 307.736 217.5C309.015 217.438 309.504 219.232 309.488 220.246C309.488 220.865 309.41 221.702 309.364 222.212C309.546 221.692 309.681 221.25 309.764 220.964C309.8 220.823 309.832 220.719 309.847 220.657C309.846 220.222 309.811 219.787 309.743 219.357C309.65 218.426 309.504 217.563 309.998 216.71C310.388 216.034 311.121 215.42 311.875 215.992C312.915 216.762 312.114 218.452 311.449 219.216C310.981 219.736 310.274 220.459 309.941 220.776C309.863 221.068 309.681 221.702 309.39 222.487C309.742 222.21 310.069 221.902 310.367 221.567C311.033 220.912 311.615 220.251 312.588 220.1C313.357 219.981 314.298 220.168 314.324 221.14C314.366 222.414 312.562 222.872 311.553 222.83C310.82 222.804 309.785 222.695 309.343 222.643C309.048 223.447 308.701 224.23 308.303 224.989L308.225 225.124C308.639 224.942 309.036 224.723 309.41 224.469C310.216 223.995 310.97 223.501 311.927 223.595C312.702 223.668 313.565 224.084 313.357 225.004C313.082 226.252 311.225 226.247 310.237 225.961C309.535 225.753 308.563 225.394 308.157 225.233C307.934 225.602 307.637 226.013 307.32 226.476C307.003 226.939 306.628 227.453 306.28 228.036C306.556 228.135 307.523 227.474 307.736 227.349C308.542 226.871 309.296 226.382 310.253 226.476C311.028 226.549 311.891 226.959 311.683 227.88C311.407 229.128 309.551 229.128 308.563 228.842C307.575 228.556 306.301 228.046 306.264 228.036V228.077C306.266 228.063 306.266 228.05 306.264 228.036C305.838 228.702 305.459 229.397 305.131 230.116C305.639 230.082 306.139 229.977 306.618 229.804C307.523 229.554 308.355 229.284 309.275 229.617C310.003 229.892 310.726 230.516 310.289 231.353C309.691 232.482 307.902 231.993 307.039 231.463C306.358 231.041 305.412 230.355 305.12 230.142C304.733 230.986 304.447 231.872 304.268 232.783C304.755 232.735 305.235 232.628 305.698 232.466C306.597 232.217 307.429 231.946 308.355 232.279C309.083 232.555 309.806 233.179 309.369 234.016C308.771 235.144 306.982 234.655 306.119 234.125C305.474 233.73 304.595 233.085 304.252 232.846C304.015 234.1 303.99 235.385 304.179 236.647H304.054C303.865 235.38 303.889 234.089 304.127 232.83C303.888 232.607 302.827 232.508 302.598 232.471C301.673 232.331 300.799 232.248 300.097 231.556C299.546 231.005 299.14 230.142 299.884 229.559C300.888 228.769 302.323 229.949 302.89 230.787C303.363 231.483 303.982 232.56 304.127 232.815V232.752L304.096 232.726H304.127C304.312 231.805 304.602 230.908 304.99 230.053C304.558 229.778 304.087 229.571 303.592 229.44C302.713 229.117 301.87 228.868 301.319 228.051C300.882 227.407 300.648 226.491 301.491 226.049C302.63 225.472 303.81 226.907 304.205 227.843C304.517 228.571 304.892 229.663 305.006 230.017C305.348 229.281 305.74 228.571 306.181 227.89C305.833 227.555 305.447 227.26 305.032 227.011C304.262 226.491 303.514 226.023 303.186 225.092C302.931 224.359 302.947 223.397 303.867 223.2C305.115 222.935 305.89 224.624 306.036 225.628C306.134 226.33 306.212 227.323 306.244 227.791C306.576 227.271 306.909 226.803 307.211 226.377C307.512 225.95 307.814 225.524 308.032 225.16L307.944 225.129C307.978 225.134 308.014 225.134 308.048 225.129C307.673 224.779 307.247 224.488 306.784 224.266C305.978 223.787 305.198 223.387 304.808 222.487C304.496 221.77 304.439 220.813 305.328 220.553C306.556 220.194 307.445 221.822 307.663 222.81C307.835 223.585 308.001 224.723 308.053 225.092L308.152 224.916C308.551 224.172 308.898 223.403 309.192 222.612H309.104C309.136 222.619 309.17 222.619 309.202 222.612L309.234 222.524C308.955 222.131 308.633 221.771 308.272 221.452Z" fill="#263238"/>
<path opacity="0.5" d="M308.272 221.452C307.601 220.797 306.93 220.225 306.764 219.258C306.628 218.494 306.795 217.547 307.736 217.5C309.015 217.438 309.504 219.232 309.488 220.246C309.488 220.865 309.41 221.702 309.364 222.212C309.546 221.692 309.681 221.25 309.764 220.964C309.8 220.823 309.832 220.719 309.847 220.657C309.846 220.222 309.811 219.787 309.743 219.357C309.65 218.426 309.504 217.563 309.998 216.71C310.388 216.034 311.121 215.42 311.875 215.992C312.915 216.762 312.114 218.452 311.449 219.216C310.981 219.736 310.274 220.459 309.941 220.776C309.863 221.068 309.681 221.702 309.39 222.487C309.742 222.21 310.069 221.902 310.367 221.567C311.033 220.912 311.615 220.251 312.588 220.1C313.357 219.981 314.298 220.168 314.324 221.14C314.366 222.414 312.562 222.872 311.553 222.83C310.82 222.804 309.785 222.695 309.343 222.643C309.048 223.447 308.701 224.23 308.303 224.989L308.225 225.124C308.639 224.942 309.036 224.723 309.41 224.469C310.216 223.995 310.97 223.501 311.927 223.595C312.702 223.668 313.565 224.084 313.357 225.004C313.082 226.252 311.225 226.247 310.237 225.961C309.535 225.753 308.563 225.394 308.157 225.233C307.934 225.602 307.637 226.013 307.32 226.476C307.003 226.939 306.628 227.453 306.28 228.036C306.556 228.135 307.523 227.474 307.736 227.349C308.542 226.871 309.296 226.382 310.253 226.476C311.028 226.549 311.891 226.959 311.683 227.88C311.407 229.128 309.551 229.128 308.563 228.842C307.575 228.556 306.301 228.046 306.264 228.036V228.077C306.266 228.063 306.266 228.05 306.264 228.036C305.838 228.702 305.459 229.397 305.131 230.116C305.639 230.082 306.139 229.977 306.618 229.804C307.523 229.554 308.355 229.284 309.275 229.617C310.003 229.892 310.726 230.516 310.289 231.353C309.691 232.482 307.902 231.993 307.039 231.463C306.358 231.041 305.412 230.355 305.12 230.142C304.733 230.986 304.447 231.872 304.268 232.783C304.755 232.735 305.235 232.628 305.698 232.466C306.597 232.217 307.429 231.946 308.355 232.279C309.083 232.555 309.806 233.179 309.369 234.016C308.771 235.144 306.982 234.655 306.119 234.125C305.474 233.73 304.595 233.085 304.252 232.846C304.015 234.1 303.99 235.385 304.179 236.647H304.054C303.865 235.38 303.889 234.089 304.127 232.83C303.888 232.607 302.827 232.508 302.598 232.471C301.673 232.331 300.799 232.248 300.097 231.556C299.546 231.005 299.14 230.142 299.884 229.559C300.888 228.769 302.323 229.949 302.89 230.787C303.363 231.483 303.982 232.56 304.127 232.815V232.752L304.096 232.726H304.127C304.312 231.805 304.602 230.908 304.99 230.053C304.558 229.778 304.087 229.571 303.592 229.44C302.713 229.117 301.87 228.868 301.319 228.051C300.882 227.407 300.648 226.491 301.491 226.049C302.63 225.472 303.81 226.907 304.205 227.843C304.517 228.571 304.892 229.663 305.006 230.017C305.348 229.281 305.74 228.571 306.181 227.89C305.833 227.555 305.447 227.26 305.032 227.011C304.262 226.491 303.514 226.023 303.186 225.092C302.931 224.359 302.947 223.397 303.867 223.2C305.115 222.935 305.89 224.624 306.036 225.628C306.134 226.33 306.212 227.323 306.244 227.791C306.576 227.271 306.909 226.803 307.211 226.377C307.512 225.95 307.814 225.524 308.032 225.16L307.944 225.129C307.978 225.134 308.014 225.134 308.048 225.129C307.673 224.779 307.247 224.488 306.784 224.266C305.978 223.787 305.198 223.387 304.808 222.487C304.496 221.77 304.439 220.813 305.328 220.553C306.556 220.194 307.445 221.822 307.663 222.81C307.835 223.585 308.001 224.723 308.053 225.092L308.152 224.916C308.551 224.172 308.898 223.403 309.192 222.612H309.104C309.136 222.619 309.17 222.619 309.202 222.612L309.234 222.524C308.955 222.131 308.633 221.771 308.272 221.452Z" fill="#263238"/>
<path d="M354.697 96.6316C353.496 93.2308 352.17 90.116 353.236 86.4812C354.084 83.6056 356.278 80.6416 359.611 82.0924C364.12 84.058 362.731 91.0832 360.953 94.5412C359.85 96.668 358.192 99.4344 357.157 101.124C358.691 99.6372 359.908 98.3528 360.688 97.4844C361.067 97.0684 361.348 96.7512 361.509 96.564C362.336 95.1496 363.121 92.5808 363.371 91.9152C364.629 88.5404 365.617 85.3008 368.774 83.2C371.275 81.5412 374.858 80.6832 376.48 83.9384C378.669 88.3428 373.1 92.8408 369.502 94.3384C366.969 95.3784 363.314 96.6264 361.608 97.188C360.844 98.046 359.122 99.9232 356.788 102.133C358.4 101.93 361.031 100.875 361.728 100.641C365.149 99.5072 368.29 98.2384 371.904 99.3824C374.764 100.282 377.681 102.534 376.168 105.836C374.114 110.308 367.115 108.8 363.688 106.938C361.202 105.586 357.838 103.438 356.408 102.502C354.005 104.774 351.447 106.876 348.754 108.794L348.26 109.127C349.866 109.34 352.726 108.956 353.46 108.904C357.053 108.644 360.407 108.191 363.631 110.183C366.179 111.743 368.456 114.665 366.168 117.494C363.08 121.321 356.673 118.134 353.808 115.487C351.728 113.573 349.008 110.661 347.833 109.398C346.434 110.287 344.713 111.207 342.82 112.242C340.928 113.277 338.749 114.442 336.518 115.788C337.288 116.61 341.765 115.986 342.716 115.918C346.31 115.658 349.664 115.206 352.888 117.203C355.436 118.763 357.713 121.68 355.43 124.509C352.31 128.336 345.93 125.148 343.07 122.502C340.402 120.032 336.622 115.908 336.518 115.788L336.44 115.96C336.458 115.908 336.47 115.854 336.476 115.799C333.871 117.356 331.377 119.093 329.014 120.999C330.143 121.815 333.835 122.294 334.677 122.46C338.213 123.152 341.572 123.599 344.157 126.365C346.206 128.56 347.641 131.955 344.677 134.087C340.688 136.968 335.317 132.215 333.273 128.887C331.64 126.287 329.545 122.283 328.905 121.056C326.134 123.313 323.632 125.882 321.448 128.71C322.748 129.454 326.128 129.896 326.929 130.052C330.465 130.744 333.824 131.186 336.409 133.957C338.458 136.152 339.893 139.547 336.929 141.674C332.94 144.56 327.569 139.802 325.525 136.5C323.965 134.03 322.036 130.348 321.282 128.908C318.314 132.821 316.029 137.208 314.522 141.882L314.059 141.731C315.57 137.033 317.855 132.62 320.819 128.674C320.388 127.499 316.893 125.356 316.139 124.836C313.196 122.756 310.315 120.978 309.088 117.395C308.116 114.556 308.199 110.869 311.756 110.115C316.576 109.117 319.509 115.643 320.044 119.506C320.486 122.715 320.778 127.494 320.84 128.617L320.996 128.414L320.923 128.279C320.951 128.318 320.98 128.357 321.012 128.393C323.249 125.545 325.809 122.966 328.64 120.708C328.24 119.402 325.447 116.823 324.849 116.194C322.364 113.594 319.883 111.28 319.374 107.526C318.973 104.556 319.764 100.953 323.398 100.916C328.318 100.875 329.935 107.843 329.706 111.738C329.529 114.79 328.947 119.2 328.754 120.614C331.183 118.652 333.752 116.868 336.44 115.279C336.128 113.781 334.36 110.989 333.97 110.287C332.238 107.13 330.424 104.265 330.897 100.506C331.266 97.5312 332.951 94.2656 336.476 95.1496C341.245 96.3612 341.021 103.511 339.81 107.219C338.957 109.819 337.516 113.376 336.83 115.045C338.863 113.833 340.813 112.778 342.586 111.821C344.464 110.807 346.128 109.907 347.495 109.039L347.251 108.774C347.348 108.867 347.465 108.936 347.594 108.976L347.667 108.935C347.516 107.578 345.244 104.525 344.77 103.797C342.81 100.771 340.798 98.0512 340.99 94.2656C341.146 91.2704 342.592 87.88 346.19 88.5144C351.031 89.3776 351.333 96.5276 350.392 100.313C349.653 103.277 348.275 107.484 347.818 108.852C348.052 108.701 348.27 108.55 348.483 108.404C351.126 106.521 353.638 104.461 356.002 102.237L355.706 102.045C355.823 102.11 355.952 102.149 356.086 102.159L356.34 101.92C356.242 100.36 354.962 97.3804 354.697 96.6316Z" fill="#263238"/>
<path opacity="0.5" d="M354.697 96.6316C353.496 93.2308 352.17 90.116 353.236 86.4812C354.084 83.6056 356.278 80.6416 359.611 82.0924C364.12 84.058 362.731 91.0832 360.953 94.5412C359.85 96.668 358.192 99.4344 357.157 101.124C358.691 99.6372 359.908 98.3528 360.688 97.4844C361.067 97.0684 361.348 96.7512 361.509 96.564C362.336 95.1496 363.121 92.5808 363.371 91.9152C364.629 88.5404 365.617 85.3008 368.774 83.2C371.275 81.5412 374.858 80.6832 376.48 83.9384C378.669 88.3428 373.1 92.8408 369.502 94.3384C366.969 95.3784 363.314 96.6264 361.608 97.188C360.844 98.046 359.122 99.9232 356.788 102.133C358.4 101.93 361.031 100.875 361.728 100.641C365.149 99.5072 368.29 98.2384 371.904 99.3824C374.764 100.282 377.681 102.534 376.168 105.836C374.114 110.308 367.115 108.8 363.688 106.938C361.202 105.586 357.838 103.438 356.408 102.502C354.005 104.774 351.447 106.876 348.754 108.794L348.26 109.127C349.866 109.34 352.726 108.956 353.46 108.904C357.053 108.644 360.407 108.191 363.631 110.183C366.179 111.743 368.456 114.665 366.168 117.494C363.08 121.321 356.673 118.134 353.808 115.487C351.728 113.573 349.008 110.661 347.833 109.398C346.434 110.287 344.713 111.207 342.82 112.242C340.928 113.277 338.749 114.442 336.518 115.788C337.288 116.61 341.765 115.986 342.716 115.918C346.31 115.658 349.664 115.206 352.888 117.203C355.436 118.763 357.713 121.68 355.43 124.509C352.31 128.336 345.93 125.148 343.07 122.502C340.402 120.032 336.622 115.908 336.518 115.788L336.44 115.96C336.458 115.908 336.47 115.854 336.476 115.799C333.871 117.356 331.377 119.093 329.014 120.999C330.143 121.815 333.835 122.294 334.677 122.46C338.213 123.152 341.572 123.599 344.157 126.365C346.206 128.56 347.641 131.955 344.677 134.087C340.688 136.968 335.317 132.215 333.273 128.887C331.64 126.287 329.545 122.283 328.905 121.056C326.134 123.313 323.632 125.882 321.448 128.71C322.748 129.454 326.128 129.896 326.929 130.052C330.465 130.744 333.824 131.186 336.409 133.957C338.458 136.152 339.893 139.547 336.929 141.674C332.94 144.56 327.569 139.802 325.525 136.5C323.965 134.03 322.036 130.348 321.282 128.908C318.314 132.821 316.029 137.208 314.522 141.882L314.059 141.731C315.57 137.033 317.855 132.62 320.819 128.674C320.388 127.499 316.893 125.356 316.139 124.836C313.196 122.756 310.315 120.978 309.088 117.395C308.116 114.556 308.199 110.869 311.756 110.115C316.576 109.117 319.509 115.643 320.044 119.506C320.486 122.715 320.778 127.494 320.84 128.617L320.996 128.414L320.923 128.279C320.951 128.318 320.98 128.357 321.012 128.393C323.249 125.545 325.809 122.966 328.64 120.708C328.24 119.402 325.447 116.823 324.849 116.194C322.364 113.594 319.883 111.28 319.374 107.526C318.973 104.556 319.764 100.953 323.398 100.916C328.318 100.875 329.935 107.843 329.706 111.738C329.529 114.79 328.947 119.2 328.754 120.614C331.183 118.652 333.752 116.868 336.44 115.279C336.128 113.781 334.36 110.989 333.97 110.287C332.238 107.13 330.424 104.265 330.897 100.506C331.266 97.5312 332.951 94.2656 336.476 95.1496C341.245 96.3612 341.021 103.511 339.81 107.219C338.957 109.819 337.516 113.376 336.83 115.045C338.863 113.833 340.813 112.778 342.586 111.821C344.464 110.807 346.128 109.907 347.495 109.039L347.251 108.774C347.348 108.867 347.465 108.936 347.594 108.976L347.667 108.935C347.516 107.578 345.244 104.525 344.77 103.797C342.81 100.771 340.798 98.0512 340.99 94.2656C341.146 91.2704 342.592 87.88 346.19 88.5144C351.031 89.3776 351.333 96.5276 350.392 100.313C349.653 103.277 348.275 107.484 347.818 108.852C348.052 108.701 348.27 108.55 348.483 108.404C351.126 106.521 353.638 104.461 356.002 102.237L355.706 102.045C355.823 102.11 355.952 102.149 356.086 102.159L356.34 101.92C356.242 100.36 354.962 97.3804 354.697 96.6316Z" fill="#263238"/>
<path d="M319.8 37.7364C316.524 36.2336 313.362 35.0168 311.48 31.72C310.008 29.12 309.4 25.48 312.769 24.0916C317.319 22.2196 321.407 28.0956 322.649 31.7928C323.409 34.06 324.241 37.18 324.729 39.0728C324.729 36.9408 324.651 35.1728 324.584 34.0132C324.547 33.4464 324.516 33.0252 324.495 32.7808C324.053 31.2208 322.759 28.8496 322.452 28.2048C320.892 24.9496 319.269 21.9648 319.961 18.2624C320.481 15.314 322.389 12.142 325.853 13.2444C330.533 14.742 329.893 21.866 328.453 25.4956C327.444 28.0436 325.785 31.5276 325 33.1448C325.083 34.2888 325.234 36.8316 325.197 40.0504C326.17 38.7504 327.246 36.1244 327.563 35.464C329.16 32.24 330.429 29.12 333.762 27.2948C336.403 25.87 340.054 25.3448 341.364 28.73C343.143 33.3164 337.204 37.2892 333.471 38.4488C330.772 39.2912 326.887 40.2168 325.208 40.6016C325.163 43.9098 324.891 47.211 324.391 50.4816C324.36 50.6688 324.324 50.8664 324.287 51.064C325.561 50.0604 327.277 47.7412 327.751 47.1692C330.07 44.408 332.082 41.6832 335.753 40.7628C338.665 40.0296 342.331 40.4144 342.768 44.0232C343.366 48.906 336.617 51.3032 332.727 51.5008C329.909 51.6516 325.92 51.5892 324.194 51.5528C323.856 53.1752 323.336 55.0368 322.743 57.1324C322.15 59.228 321.49 61.5888 320.902 64.1264V64.1524C322.031 64.1524 324.698 60.5124 325.312 59.7896C327.626 57.0284 329.638 54.3036 333.315 53.3832C336.221 52.65 339.893 53.0348 340.329 56.6436C340.927 61.5264 334.178 63.9236 330.283 64.1212C326.643 64.3188 321.063 64.1576 320.923 64.1524L320.996 64.3136C320.97 64.2634 320.939 64.2163 320.902 64.1732C320.208 67.1307 319.724 70.1333 319.451 73.1588C320.824 72.9144 323.736 70.6004 324.443 70.1064C327.402 68.0524 330.054 65.9464 333.845 66.0244C336.845 66.0816 340.283 67.4128 339.757 71.0112C339.05 75.8784 331.916 76.4088 328.104 75.5924C325.083 74.9424 320.767 73.6736 319.441 73.2784C319.13 76.8385 319.232 80.4224 319.743 83.9593C321.183 83.5433 323.851 81.4268 324.521 80.9588C327.48 78.8788 330.137 76.7988 333.928 76.8716C336.923 76.9288 340.361 78.2652 339.841 81.8636C339.133 86.7308 331.999 87.2612 328.182 86.4396C325.338 85.8312 321.339 84.6716 319.779 84.2088C320.526 89.0612 322.086 93.7531 324.391 98.0877L323.96 98.3112C321.633 93.9542 320.051 89.2386 319.28 84.3596C318.136 83.8396 314.168 84.8796 313.279 85.0356C309.738 85.7012 306.451 86.5332 303.025 84.916C300.31 83.6368 297.721 81.016 299.671 77.948C302.307 73.788 309.031 76.2268 312.151 78.5356C314.751 80.4492 318.391 83.5692 319.249 84.3024C319.249 84.2192 319.249 84.136 319.212 84.0528L319.067 84.0112C319.113 84.0144 319.16 84.0144 319.207 84.0112C318.691 80.4243 318.59 76.7898 318.905 73.1796C317.689 72.5608 313.898 72.7688 313.029 72.7636C309.426 72.7272 306.046 72.9092 302.993 70.6576C300.581 68.8792 298.547 65.8008 301.054 63.1696C304.444 59.6024 310.575 63.2996 313.211 66.17C315.291 68.4268 318.037 71.89 318.931 73.034C319.219 69.9253 319.726 66.8409 320.45 63.804C319.16 62.9876 315.926 62.3168 315.151 62.1036C311.677 61.152 308.36 60.4604 305.989 57.5016C304.111 55.1668 302.931 51.6724 306.025 49.764C310.216 47.164 315.198 52.3276 317.013 55.7752C318.287 58.1984 319.836 61.7084 320.554 63.362C321.105 61.0636 321.703 58.9264 322.249 56.9868C322.831 54.9068 323.341 53.1128 323.674 51.5268H323.31C323.444 51.521 323.576 51.4855 323.695 51.4228V51.3396C322.618 50.5024 318.843 50.0084 317.975 49.842C314.439 49.1452 311.085 48.6928 308.5 45.9212C306.457 43.7268 305.027 40.326 307.98 38.1992C311.974 35.3236 317.34 40.0868 319.379 43.3992C320.991 45.9992 323.05 49.9148 323.715 51.1992C323.767 50.9288 323.814 50.6792 323.856 50.4088C324.346 47.2018 324.617 43.9651 324.667 40.7212L324.324 40.7992C324.45 40.7594 324.567 40.6939 324.667 40.6068C324.667 40.4872 324.667 40.3676 324.667 40.2532C323.57 39.2392 320.523 38.0692 319.8 37.7364Z" fill="#263238"/>
<path opacity="0.5" d="M319.8 37.7364C316.524 36.2336 313.362 35.0168 311.48 31.72C310.008 29.12 309.4 25.48 312.769 24.0916C317.319 22.2196 321.407 28.0956 322.649 31.7928C323.409 34.06 324.241 37.18 324.729 39.0728C324.729 36.9408 324.651 35.1728 324.584 34.0132C324.547 33.4464 324.516 33.0252 324.495 32.7808C324.053 31.2208 322.759 28.8496 322.452 28.2048C320.892 24.9496 319.269 21.9648 319.961 18.2624C320.481 15.314 322.389 12.142 325.853 13.2444C330.533 14.742 329.893 21.866 328.453 25.4956C327.444 28.0436 325.785 31.5276 325 33.1448C325.083 34.2888 325.234 36.8316 325.197 40.0504C326.17 38.7504 327.246 36.1244 327.563 35.464C329.16 32.24 330.429 29.12 333.762 27.2948C336.403 25.87 340.054 25.3448 341.364 28.73C343.143 33.3164 337.204 37.2892 333.471 38.4488C330.772 39.2912 326.887 40.2168 325.208 40.6016C325.163 43.9098 324.891 47.211 324.391 50.4816C324.36 50.6688 324.324 50.8664 324.287 51.064C325.561 50.0604 327.277 47.7412 327.751 47.1692C330.07 44.408 332.082 41.6832 335.753 40.7628C338.665 40.0296 342.331 40.4144 342.768 44.0232C343.366 48.906 336.617 51.3032 332.727 51.5008C329.909 51.6516 325.92 51.5892 324.194 51.5528C323.856 53.1752 323.336 55.0368 322.743 57.1324C322.15 59.228 321.49 61.5888 320.902 64.1264V64.1524C322.031 64.1524 324.698 60.5124 325.312 59.7896C327.626 57.0284 329.638 54.3036 333.315 53.3832C336.221 52.65 339.893 53.0348 340.329 56.6436C340.927 61.5264 334.178 63.9236 330.283 64.1212C326.643 64.3188 321.063 64.1576 320.923 64.1524L320.996 64.3136C320.97 64.2634 320.939 64.2163 320.902 64.1732C320.208 67.1307 319.724 70.1333 319.451 73.1588C320.824 72.9144 323.736 70.6004 324.443 70.1064C327.402 68.0524 330.054 65.9464 333.845 66.0244C336.845 66.0816 340.283 67.4128 339.757 71.0112C339.05 75.8784 331.916 76.4088 328.104 75.5924C325.083 74.9424 320.767 73.6736 319.441 73.2784C319.13 76.8385 319.232 80.4224 319.743 83.9593C321.183 83.5433 323.851 81.4268 324.521 80.9588C327.48 78.8788 330.137 76.7988 333.928 76.8716C336.923 76.9288 340.361 78.2652 339.841 81.8636C339.133 86.7308 331.999 87.2612 328.182 86.4396C325.338 85.8312 321.339 84.6716 319.779 84.2088C320.526 89.0612 322.086 93.7531 324.391 98.0877L323.96 98.3112C321.633 93.9542 320.051 89.2386 319.28 84.3596C318.136 83.8396 314.168 84.8796 313.279 85.0356C309.738 85.7012 306.451 86.5332 303.025 84.916C300.31 83.6368 297.721 81.016 299.671 77.948C302.307 73.788 309.031 76.2268 312.151 78.5356C314.751 80.4492 318.391 83.5692 319.249 84.3024C319.249 84.2192 319.249 84.136 319.212 84.0528L319.067 84.0112C319.113 84.0144 319.16 84.0144 319.207 84.0112C318.691 80.4243 318.59 76.7898 318.905 73.1796C317.689 72.5608 313.898 72.7688 313.029 72.7636C309.426 72.7272 306.046 72.9092 302.993 70.6576C300.581 68.8792 298.547 65.8008 301.054 63.1696C304.444 59.6024 310.575 63.2996 313.211 66.17C315.291 68.4268 318.037 71.89 318.931 73.034C319.219 69.9253 319.726 66.8409 320.45 63.804C319.16 62.9876 315.926 62.3168 315.151 62.1036C311.677 61.152 308.36 60.4604 305.989 57.5016C304.111 55.1668 302.931 51.6724 306.025 49.764C310.216 47.164 315.198 52.3276 317.013 55.7752C318.287 58.1984 319.836 61.7084 320.554 63.362C321.105 61.0636 321.703 58.9264 322.249 56.9868C322.831 54.9068 323.341 53.1128 323.674 51.5268H323.31C323.444 51.521 323.576 51.4855 323.695 51.4228V51.3396C322.618 50.5024 318.843 50.0084 317.975 49.842C314.439 49.1452 311.085 48.6928 308.5 45.9212C306.457 43.7268 305.027 40.326 307.98 38.1992C311.974 35.3236 317.34 40.0868 319.379 43.3992C320.991 45.9992 323.05 49.9148 323.715 51.1992C323.767 50.9288 323.814 50.6792 323.856 50.4088C324.346 47.2018 324.617 43.9651 324.667 40.7212L324.324 40.7992C324.45 40.7594 324.567 40.6939 324.667 40.6068C324.667 40.4872 324.667 40.3676 324.667 40.2532C323.57 39.2392 320.523 38.0692 319.8 37.7364Z" fill="#263238"/>
<path d="M47.9648 176.904C44.8448 177.424 41.9484 178.131 38.9584 176.665C36.5924 175.505 34.3512 173.17 36.0984 170.498C38.4696 166.884 44.3508 169.109 47.0808 171.179C48.7604 172.448 50.908 174.299 52.2184 175.443C51.1784 173.883 50.2268 172.65 49.6184 171.844C49.6184 171.844 49.6184 171.844 49.6184 171.818C49.3116 171.428 49.0984 171.137 48.9424 170.971C47.7542 170.106 46.4987 169.337 45.188 168.672C42.4528 167.076 39.7956 165.745 38.428 162.698C37.388 160.29 37.1488 157.056 40.2064 156.135C44.3664 154.892 47.4188 160.378 48.1832 163.717C48.7032 166.072 49.2232 169.437 49.4832 170.997C50.1124 171.787 51.48 173.555 53.0504 175.906C53.1128 174.481 52.5876 172.047 52.4888 171.408C52.0104 168.288 51.3812 165.37 52.9048 162.406C54.1112 160.066 56.4928 157.867 59.1448 159.671C62.712 162.115 60.3668 167.95 58.2504 170.638C56.6904 172.588 54.3556 175.188 53.3312 176.301C54.9391 178.722 56.3794 181.249 57.642 183.867C57.7148 184.018 57.7876 184.179 57.8552 184.34C58.2816 182.983 58.3752 180.445 58.4324 179.795C58.7392 176.649 58.8484 173.675 61.0324 171.179C62.7744 169.203 65.624 167.664 67.7352 170.061C70.5952 173.306 66.8876 178.381 64.168 180.461C62.2024 181.969 59.28 183.908 58.0112 184.74C58.5728 186.082 59.1188 187.689 59.7324 189.504C60.346 191.318 61.0324 193.352 61.8696 195.484C62.6912 194.964 62.816 190.97 62.9096 190.133C63.2164 186.982 63.3204 184.007 65.5096 181.511C67.2568 179.535 70.1064 177.996 72.2176 180.393C75.0724 183.638 71.3648 188.713 68.6504 190.793C66.1128 192.743 61.984 195.4 61.8904 195.473L62.0204 195.556C61.9756 195.538 61.9283 195.526 61.88 195.52C62.8439 198.009 63.9839 200.426 65.2912 202.753C66.1648 201.895 67.1268 198.77 67.3712 198.073C68.4944 195.114 69.3784 192.275 72.1604 190.445C74.36 188.994 77.5164 188.256 78.9205 191.121C80.8237 195.005 75.9148 198.921 72.7428 200.231C70.2312 201.271 66.5028 202.488 65.3172 202.857C66.8621 205.591 68.715 208.138 70.8396 210.449C71.6768 209.409 72.5608 206.57 72.8156 205.899C73.9388 202.94 74.8176 200.096 77.5996 198.266C79.8044 196.82 82.9557 196.082 84.3596 198.947C86.2681 202.826 81.354 206.747 78.1872 208.057C75.8212 209.024 72.3424 210.168 70.9852 210.61C73.9446 213.768 77.4169 216.402 81.2552 218.4L81.0577 218.775C77.2113 216.77 73.7291 214.133 70.7564 210.975C69.6696 211.177 67.2984 213.887 66.7368 214.448C64.5008 216.689 62.5352 218.92 59.2488 219.451C56.6488 219.872 53.4664 219.258 53.352 216.065C53.2012 211.744 59.2852 210.169 62.712 210.283C65.5564 210.371 69.7424 210.829 70.72 210.938L70.5692 210.777L70.4444 210.813C70.4824 210.797 70.5189 210.778 70.5536 210.756C68.3968 208.416 66.5191 205.833 64.9584 203.06C63.7676 203.211 61.1208 205.249 60.4864 205.66C57.8864 207.428 55.4996 209.238 52.1664 209.118C49.53 209.03 46.5296 207.808 47.0392 204.657C47.7256 200.387 54.002 200.023 57.3404 200.793C59.9404 201.401 63.6896 202.556 64.8856 202.935C63.5516 200.54 62.3891 198.054 61.4068 195.494C60.06 195.541 57.382 196.659 56.7268 196.888C53.7368 197.928 51.0068 199.072 47.8036 198.104C45.2816 197.345 42.6868 195.395 43.9868 192.478C45.7444 188.531 51.9064 189.779 54.9068 191.381C57.0336 192.504 59.8988 194.277 61.2456 195.12C60.4968 193.18 59.8728 191.334 59.306 189.654C58.708 187.881 58.1724 186.306 57.6264 184.974L57.356 185.146C57.4513 185.076 57.5295 184.985 57.5848 184.881V184.813C56.3888 184.74 53.4248 186.254 52.7072 186.555C49.7952 187.808 47.1432 189.155 43.8932 188.422C41.2932 187.845 38.5944 186.092 39.676 183.087C41.1424 179.02 47.3772 179.816 50.518 181.194C52.9776 182.27 56.42 184.09 57.5328 184.683C57.434 184.465 57.3404 184.252 57.2416 184.044C56.003 181.475 54.5905 178.994 53.014 176.618L52.806 176.847C52.8795 176.755 52.9327 176.649 52.962 176.535L52.7904 176.28C51.4436 176.124 48.6512 176.8 47.9648 176.904Z" fill="#263238"/>
<path opacity="0.5" d="M47.9648 176.904C44.8448 177.424 41.9484 178.131 38.9584 176.665C36.5924 175.505 34.3512 173.17 36.0984 170.498C38.4696 166.884 44.3508 169.109 47.0808 171.179C48.7604 172.448 50.908 174.299 52.2184 175.443C51.1784 173.883 50.2268 172.65 49.6184 171.844C49.6184 171.844 49.6184 171.844 49.6184 171.818C49.3116 171.428 49.0984 171.137 48.9424 170.971C47.7542 170.106 46.4987 169.337 45.188 168.672C42.4528 167.076 39.7956 165.745 38.428 162.698C37.388 160.29 37.1488 157.056 40.2064 156.135C44.3664 154.892 47.4188 160.378 48.1832 163.717C48.7032 166.072 49.2232 169.437 49.4832 170.997C50.1124 171.787 51.48 173.555 53.0504 175.906C53.1128 174.481 52.5876 172.047 52.4888 171.408C52.0104 168.288 51.3812 165.37 52.9048 162.406C54.1112 160.066 56.4928 157.867 59.1448 159.671C62.712 162.115 60.3668 167.95 58.2504 170.638C56.6904 172.588 54.3556 175.188 53.3312 176.301C54.9391 178.722 56.3794 181.249 57.642 183.867C57.7148 184.018 57.7876 184.179 57.8552 184.34C58.2816 182.983 58.3752 180.445 58.4324 179.795C58.7392 176.649 58.8484 173.675 61.0324 171.179C62.7744 169.203 65.624 167.664 67.7352 170.061C70.5952 173.306 66.8876 178.381 64.168 180.461C62.2024 181.969 59.28 183.908 58.0112 184.74C58.5728 186.082 59.1188 187.689 59.7324 189.504C60.346 191.318 61.0324 193.352 61.8696 195.484C62.6912 194.964 62.816 190.97 62.9096 190.133C63.2164 186.982 63.3204 184.007 65.5096 181.511C67.2568 179.535 70.1064 177.996 72.2176 180.393C75.0724 183.638 71.3648 188.713 68.6504 190.793C66.1128 192.743 61.984 195.4 61.8904 195.473L62.0204 195.556C61.9756 195.538 61.9283 195.526 61.88 195.52C62.8439 198.009 63.9839 200.426 65.2912 202.753C66.1648 201.895 67.1268 198.77 67.3712 198.073C68.4944 195.114 69.3784 192.275 72.1604 190.445C74.36 188.994 77.5164 188.256 78.9205 191.121C80.8237 195.005 75.9148 198.921 72.7428 200.231C70.2312 201.271 66.5028 202.488 65.3172 202.857C66.8621 205.591 68.715 208.138 70.8396 210.449C71.6768 209.409 72.5608 206.57 72.8156 205.899C73.9388 202.94 74.8176 200.096 77.5996 198.266C79.8044 196.82 82.9557 196.082 84.3596 198.947C86.2681 202.826 81.354 206.747 78.1872 208.057C75.8212 209.024 72.3424 210.168 70.9852 210.61C73.9446 213.768 77.4169 216.402 81.2552 218.4L81.0577 218.775C77.2113 216.77 73.7291 214.133 70.7564 210.975C69.6696 211.177 67.2984 213.887 66.7368 214.448C64.5008 216.689 62.5352 218.92 59.2488 219.451C56.6488 219.872 53.4664 219.258 53.352 216.065C53.2012 211.744 59.2852 210.169 62.712 210.283C65.5564 210.371 69.7424 210.829 70.72 210.938L70.5692 210.777L70.4444 210.813C70.4824 210.797 70.5189 210.778 70.5536 210.756C68.3968 208.416 66.5191 205.833 64.9584 203.06C63.7676 203.211 61.1208 205.249 60.4864 205.66C57.8864 207.428 55.4996 209.238 52.1664 209.118C49.53 209.03 46.5296 207.808 47.0392 204.657C47.7256 200.387 54.002 200.023 57.3404 200.793C59.9404 201.401 63.6896 202.556 64.8856 202.935C63.5516 200.54 62.3891 198.054 61.4068 195.494C60.06 195.541 57.382 196.659 56.7268 196.888C53.7368 197.928 51.0068 199.072 47.8036 198.104C45.2816 197.345 42.6868 195.395 43.9868 192.478C45.7444 188.531 51.9064 189.779 54.9068 191.381C57.0336 192.504 59.8988 194.277 61.2456 195.12C60.4968 193.18 59.8728 191.334 59.306 189.654C58.708 187.881 58.1724 186.306 57.6264 184.974L57.356 185.146C57.4513 185.076 57.5295 184.985 57.5848 184.881V184.813C56.3888 184.74 53.4248 186.254 52.7072 186.555C49.7952 187.808 47.1432 189.155 43.8932 188.422C41.2932 187.845 38.5944 186.092 39.676 183.087C41.1424 179.02 47.3772 179.816 50.518 181.194C52.9776 182.27 56.42 184.09 57.5328 184.683C57.434 184.465 57.3404 184.252 57.2416 184.044C56.003 181.475 54.5905 178.994 53.014 176.618L52.806 176.847C52.8795 176.755 52.9327 176.649 52.962 176.535L52.7904 176.28C51.4436 176.124 48.6512 176.8 47.9648 176.904Z" fill="#263238"/>
<path d="M28.08 182.244C27.8897 182.244 27.7072 182.169 27.5726 182.034C27.438 181.9 27.3624 181.717 27.3624 181.527V132.798C27.3624 132.703 27.381 132.61 27.417 132.523C27.4531 132.436 27.5059 132.357 27.5726 132.29C27.6392 132.224 27.7183 132.171 27.8054 132.135C27.8924 132.099 27.9858 132.08 28.08 132.08C28.1742 132.08 28.2675 132.099 28.3546 132.135C28.4417 132.171 28.5208 132.224 28.5874 132.29C28.6541 132.357 28.7069 132.436 28.743 132.523C28.779 132.61 28.7976 132.703 28.7976 132.798V181.527C28.7983 181.621 28.7802 181.715 28.7444 181.802C28.7086 181.89 28.6557 181.969 28.589 182.036C28.5222 182.103 28.4428 182.155 28.3554 182.191C28.2681 182.227 28.1744 182.245 28.08 182.244Z" fill="#407BFF" stroke="#263238" stroke-linecap="round" stroke-linejoin="round"/>
<path d="M27.7264 180.367C27.7264 180.367 24.2164 182.182 23.3116 187.262C22.4068 192.343 20.41 201.599 20.41 201.599H34.5592C34.5592 201.599 33.6544 191.256 32.5624 186.904C31.4704 182.551 28.4492 179.748 27.7264 180.367Z" fill="#407BFF" stroke="#263238" stroke-linecap="round" stroke-linejoin="round"/>
<path d="M30.2588 180.913C30.2166 181.332 30.0538 181.73 29.7902 182.058C29.5266 182.387 29.1735 182.632 28.7736 182.764C28.3736 182.896 27.944 182.909 27.5367 182.802C27.1294 182.695 26.7619 182.472 26.4786 182.16C26.1954 181.849 26.0085 181.461 25.9407 181.046C25.8728 180.63 25.9269 180.204 26.0963 179.818C26.2657 179.433 26.5432 179.104 26.8953 178.873C27.2474 178.642 27.6589 178.518 28.08 178.516C28.3806 178.53 28.6755 178.603 28.9477 178.731C29.22 178.859 29.4643 179.04 29.6667 179.263C29.8691 179.485 30.0255 179.746 30.1272 180.029C30.2288 180.312 30.2735 180.613 30.2588 180.913Z" fill="#407BFF" stroke="#263238" stroke-linecap="round" stroke-linejoin="round"/>
<path d="M22.9476 201.417L24.3984 194.522" stroke="#263238" stroke-linecap="round" stroke-linejoin="round"/>
<path d="M26.5772 191.802L25.3084 199.238" stroke="#263238" stroke-linecap="round" stroke-linejoin="round"/>
<path d="M28.392 201.235L28.756 197.969" stroke="#263238" stroke-linecap="round" stroke-linejoin="round"/>
<path d="M31.8396 201.053L30.9296 193.976" stroke="#263238" stroke-linecap="round" stroke-linejoin="round"/>
<path d="M63.4972 76.57L25.6724 134.16L91.78 105.877L136.417 65.6656L63.4972 76.57Z" fill="#263238" stroke="#263238" stroke-linecap="round" stroke-linejoin="round"/>
<path d="M109.2 85.6128C105.914 78.7072 90.844 79.0088 75.5404 86.2888C60.2368 93.5688 50.4972 105.071 53.7836 111.977L64.0536 132.257L119.465 105.893L109.2 85.6128Z" fill="white" stroke="#263238" stroke-linecap="round" stroke-linejoin="round"/>
<path d="M97.7245 131.592C113.027 124.31 122.768 112.808 119.481 105.902C116.195 98.9968 101.126 99.3023 85.8233 106.585C70.5208 113.867 60.7799 125.369 64.0664 132.275C67.3528 139.18 82.4221 138.875 97.7245 131.592Z" fill="#263238" stroke="#263238" stroke-linecap="round" stroke-linejoin="round"/>
<path d="M276.281 232.56H207.298L209.622 229.684C213.268 225.201 215.265 219.603 215.28 213.824V196.186H268.32V213.824C268.324 219.601 270.314 225.2 273.957 229.684L276.281 232.56Z" fill="white" stroke="#263238" stroke-linecap="round" stroke-linejoin="round"/>
<path d="M268.32 196.186H215.259V209.945H268.32V196.186Z" fill="#263238" stroke="#263238" stroke-linecap="round" stroke-linejoin="round"/>
<path d="M344.027 45.136H139.558C137.122 45.136 135.148 47.1103 135.148 49.5456V197.335C135.148 199.77 137.122 201.745 139.558 201.745H344.027C346.462 201.745 348.436 199.77 348.436 197.335V49.5456C348.436 47.1103 346.462 45.136 344.027 45.136Z" fill="#263238" stroke="#263238" stroke-linecap="round" stroke-linejoin="round"/>
<path d="M135.148 177.403H348.436V197.335C348.436 198.504 347.972 199.626 347.145 200.453C346.318 201.28 345.196 201.745 344.027 201.745H139.558C138.979 201.745 138.405 201.63 137.87 201.409C137.335 201.187 136.849 200.862 136.44 200.453C136.03 200.043 135.705 199.557 135.484 199.022C135.262 198.487 135.148 197.914 135.148 197.335V177.403Z" fill="white" stroke="#263238" stroke-linecap="round" stroke-linejoin="round"/>
<path d="M337.704 54.8808H145.876V165.526H337.704V54.8808Z" fill="white" stroke="#263238" stroke-linecap="round" stroke-linejoin="round"/>
<path d="M332.847 68.5725H261.082V155.719H332.847V68.5725Z" stroke="#263238" stroke-linecap="round" stroke-linejoin="round"/>
<path d="M332.852 88.3428L326.628 79.924L298.433 128.622L285.984 119.834L261.082 155.714H332.852V88.3428Z" fill="white" stroke="#263238" stroke-linecap="round" stroke-linejoin="round"/>
<path d="M286.587 95.54C290.662 91.4643 290.662 84.8564 286.587 80.7807C282.511 76.705 275.903 76.705 271.827 80.7807C267.752 84.8564 267.752 91.4643 271.827 95.54C275.903 99.6157 282.511 99.6157 286.587 95.54Z" fill="white" stroke="#263238" stroke-linecap="round" stroke-linejoin="round"/>
<path d="M156.364 98.2281H253.396" stroke="#263238" stroke-miterlimit="10"/>
<path d="M156.364 106.288H253.396" stroke="#263238" stroke-miterlimit="10"/>
<path d="M156.364 114.343H253.396" stroke="#263238" stroke-miterlimit="10"/>
<path d="M337.704 54.8808H145.876V65.884H337.704V54.8808Z" fill="white" stroke="#263238" stroke-linecap="round" stroke-linejoin="round"/>
<path d="M337.704 158.621H145.876V165.527H337.704V158.621Z" fill="white" stroke="#263238" stroke-linecap="round" stroke-linejoin="round"/>
<path d="M276.302 232.554H207.298V235.706H276.302V232.554Z" fill="#263238" stroke="#263238" stroke-linecap="round" stroke-linejoin="round"/>
<path d="M168.574 120.478L168.61 118.762L168.116 119.86L167.726 119.34V117L166.452 116.802L166.353 115.627L165.667 115.429V114.155L164.788 113.963V112.59L163.316 112.294L163.02 111.607L161.741 111.212L123.724 119.574L84.0736 116.194C84.0736 116.194 81.4736 136.624 78.6032 155.121C75.7328 173.617 63.0032 220.121 63.0032 220.121L60.2992 223.449L61.308 224.858L60.788 225.269L61.9268 225.747L62.4832 226.517L62.2596 227.13L63.2632 227.604L63.8144 228.368L63.6324 229.091L64.6724 229.611L65.0988 230.204L64.5788 231.072L66.2012 231.764L66.82 232.616L66.3416 233.329L67.9016 234.104L68.4216 234.837L68.12 235.19H68.6816L69.2016 235.882C69.2016 235.882 120.983 236.402 151.195 235.612C151.195 235.612 163.067 174.371 165.495 156.052C167.924 137.732 169.27 121.518 169.27 121.518L168.574 120.478Z" fill="white" stroke="#263238" stroke-linecap="round" stroke-linejoin="round"/>
<path d="M81.602 112.84C81.602 112.84 79.444 144.674 74.0464 168.683C68.6488 192.691 60.3184 223.429 60.3184 223.429C60.3184 223.429 111.481 224.151 141.693 223.345C141.693 223.345 155.562 164.065 157.985 145.735C160.408 127.405 161.765 111.207 161.765 111.207C161.765 111.207 89.4384 114.171 81.602 112.84Z" fill="#407BFF" stroke="#263238" stroke-linecap="round" stroke-linejoin="round"/>
<path d="M66.17 228.696L99.0912 230.136" stroke="#263238" stroke-linecap="round" stroke-linejoin="round"/>
<path d="M90.8284 228.769L102.185 229.263" stroke="#263238" stroke-linecap="round" stroke-linejoin="round"/>
<path d="M132.678 232.029L114.405 232.128" stroke="#263238" stroke-linecap="round" stroke-linejoin="round"/>
<path d="M146.754 233.719L136.432 233.704" stroke="#263238" stroke-linecap="round" stroke-linejoin="round"/>
<path d="M144.139 226.72C144.139 226.72 147.103 231.759 150.067 234.718" stroke="#263238" stroke-linecap="round" stroke-linejoin="round"/>
<path d="M148.19 223.829L146.806 230.646L137.134 230.714" stroke="#263238" stroke-linecap="round" stroke-linejoin="round"/>
<path d="M150.166 220.075L148.091 228.967" stroke="#263238" stroke-linecap="round" stroke-linejoin="round"/>
<path d="M143.744 228.275L124.675 228.473" stroke="#263238" stroke-linecap="round" stroke-linejoin="round"/>
<path d="M165.36 119.408C165.36 119.408 162.895 145.486 161.72 153.884" stroke="#263238" stroke-linecap="round" stroke-linejoin="round"/>
<path d="M167.154 118.914L166.462 126.719" stroke="#263238" stroke-linecap="round" stroke-linejoin="round"/>
<path d="M160.836 145.189C160.836 145.189 158.959 160.306 157.196 169.296" stroke="#263238" stroke-linecap="round" stroke-linejoin="round"/>
<path d="M133.926 233.719H126.313" stroke="#263238" stroke-linecap="round" stroke-linejoin="round"/>
<path d="M66.066 231.114C66.066 231.114 86.5124 232.113 87.1104 232.113" stroke="#263238" stroke-linecap="round" stroke-linejoin="round"/>
<path d="M76.6896 227.105L83.1012 227.302" stroke="#263238" stroke-linecap="round" stroke-linejoin="round"/>
<path d="M157.18 192.229C157.18 192.229 152.568 216.278 151.164 222.295" stroke="#263238" stroke-linecap="round" stroke-linejoin="round"/>
<path d="M87.36 122.964C87.361 122.533 87.2341 122.112 86.9953 121.753C86.7565 121.394 86.4166 121.113 86.0186 120.948C85.6205 120.782 85.1823 120.738 84.7593 120.822C84.3363 120.905 83.9476 121.112 83.6424 121.417C83.3371 121.721 83.1291 122.109 83.0446 122.532C82.9601 122.955 83.003 123.393 83.1677 123.792C83.3325 124.19 83.6117 124.531 83.9702 124.77C84.3286 125.01 84.75 125.138 85.1812 125.138C85.7577 125.137 86.3103 124.907 86.7185 124.5C87.1266 124.093 87.3572 123.541 87.36 122.964Z" fill="white" stroke="#263238" stroke-linecap="round" stroke-linejoin="round"/>
<path d="M84.6508 143.707C84.6518 143.276 84.5248 142.854 84.2858 142.495C84.0467 142.136 83.7065 141.856 83.3082 141.69C82.9098 141.525 82.4713 141.481 82.0482 141.565C81.6251 141.649 81.2364 141.856 80.9313 142.161C80.6263 142.466 80.4187 142.855 80.3348 143.278C80.2509 143.701 80.2945 144.14 80.46 144.538C80.6256 144.937 80.9057 145.277 81.2648 145.516C81.6238 145.755 82.0458 145.882 82.4772 145.881C83.0532 145.88 83.6053 145.65 84.0126 145.243C84.42 144.835 84.6494 144.283 84.6508 143.707Z" fill="white" stroke="#263238" stroke-linecap="round" stroke-linejoin="round"/>
<path d="M81.2448 164.45C81.2448 164.019 81.1169 163.598 80.8772 163.239C80.6376 162.881 80.297 162.601 79.8986 162.437C79.5001 162.272 79.0618 162.229 78.639 162.314C78.2162 162.398 77.828 162.606 77.5235 162.911C77.219 163.217 77.0119 163.605 76.9284 164.028C76.8449 164.451 76.8888 164.889 77.0545 165.288C77.2202 165.686 77.5003 166.025 77.8593 166.264C78.2183 166.503 78.64 166.63 79.0712 166.629C79.3571 166.629 79.6401 166.573 79.9042 166.463C80.1682 166.353 80.4081 166.193 80.61 165.99C80.8119 165.788 80.9719 165.548 81.0808 165.284C81.1898 165.019 81.2455 164.736 81.2448 164.45Z" fill="white" stroke="#263238" stroke-linecap="round" stroke-linejoin="round"/>
<path d="M76.2528 185.193C76.2528 184.762 76.125 184.341 75.8856 183.982C75.6462 183.624 75.3059 183.345 74.9078 183.18C74.5097 183.015 74.0716 182.972 73.649 183.056C73.2263 183.14 72.8381 183.347 72.5334 183.652C72.2287 183.957 72.0212 184.345 71.9371 184.768C71.853 185.19 71.8962 185.629 72.0611 186.027C72.226 186.425 72.5052 186.765 72.8635 187.004C73.2218 187.244 73.6431 187.372 74.074 187.372C74.6519 187.372 75.2061 187.142 75.6147 186.734C76.0233 186.325 76.2528 185.771 76.2528 185.193Z" fill="white" stroke="#263238" stroke-linecap="round" stroke-linejoin="round"/>
<path d="M69.6644 208.109C70.8649 208.109 71.838 207.136 71.838 205.936C71.838 204.735 70.8649 203.762 69.6644 203.762C68.464 203.762 67.4908 204.735 67.4908 205.936C67.4908 207.136 68.464 208.109 69.6644 208.109Z" fill="white" stroke="#263238" stroke-linecap="round" stroke-linejoin="round"/>
<path d="M66.1336 201.661C64.9622 201.674 63.8437 202.15 63.0237 202.987C62.2037 203.824 61.7493 204.951 61.7604 206.123C61.7587 206.882 61.9484 207.629 62.3119 208.295C62.6755 208.961 63.2012 209.525 63.8404 209.934L64.3136 208.281C64.0123 208.008 63.7715 207.675 63.6067 207.303C63.4419 206.931 63.3568 206.529 63.3568 206.123C63.3568 205.389 63.6483 204.686 64.1671 204.167C64.6859 203.648 65.3895 203.356 66.1232 203.356C66.8569 203.356 67.5606 203.648 68.0794 204.167C68.5982 204.686 68.8896 205.389 68.8896 206.123C68.8807 206.234 68.8948 206.345 68.9311 206.451C68.9675 206.556 69.0252 206.652 69.1006 206.734C69.1761 206.816 69.2677 206.881 69.3697 206.926C69.4716 206.97 69.5817 206.994 69.693 206.994C69.8043 206.994 69.9144 206.97 70.0163 206.926C70.1183 206.881 70.2099 206.816 70.2854 206.734C70.3608 206.652 70.4186 206.556 70.4549 206.451C70.4912 206.345 70.5053 206.234 70.4964 206.123C70.5075 204.953 70.0546 203.827 69.2368 202.991C68.4191 202.154 67.3032 201.676 66.1336 201.661Z" fill="#8C8C8C" stroke="#263238" stroke-linecap="round" stroke-linejoin="round"/>
<path d="M70.5432 180.913C69.502 180.937 68.5016 181.323 67.7142 182.004C66.9268 182.686 66.4017 183.621 66.2293 184.648C66.0569 185.675 66.2479 186.73 66.7696 187.632C67.2912 188.533 68.1108 189.225 69.0872 189.587L69.4356 187.99C68.9396 187.761 68.5197 187.394 68.2257 186.933C67.9317 186.472 67.7759 185.937 67.7768 185.39C67.7606 185.017 67.8201 184.645 67.9517 184.296C68.0833 183.946 68.2843 183.627 68.5425 183.357C68.8007 183.088 69.1109 182.873 69.4543 182.726C69.7977 182.58 70.1672 182.504 70.5406 182.504C70.914 182.504 71.2835 182.58 71.6269 182.726C71.9703 182.873 72.2804 183.088 72.5387 183.357C72.7969 183.627 72.9979 183.946 73.1295 184.296C73.2611 184.645 73.3206 185.017 73.3044 185.39C73.3044 185.604 73.3893 185.809 73.5405 185.96C73.6916 186.112 73.8966 186.196 74.1104 186.196C74.3242 186.196 74.5292 186.112 74.6803 185.96C74.8315 185.809 74.9164 185.604 74.9164 185.39C74.9233 184.809 74.8156 184.233 74.5995 183.693C74.3835 183.153 74.0632 182.662 73.6571 182.246C73.251 181.83 72.767 181.499 72.2327 181.27C71.6984 181.041 71.1243 180.92 70.5432 180.913Z" fill="#8C8C8C" stroke="#263238" stroke-linecap="round" stroke-linejoin="round"/>
<path d="M75.5352 160.16C74.3634 160.174 73.2448 160.652 72.425 161.489C71.6051 162.327 71.1509 163.455 71.162 164.627C71.1598 165.532 71.4319 166.416 71.9424 167.164C72.453 167.911 73.1781 168.486 74.022 168.813L74.3652 167.201C73.8852 166.964 73.4813 166.597 73.1991 166.142C72.9169 165.687 72.7679 165.162 72.7688 164.627C72.7688 164.264 72.8404 163.904 72.9794 163.568C73.1184 163.233 73.3222 162.928 73.5791 162.671C73.836 162.414 74.1409 162.21 74.4766 162.071C74.8122 161.932 75.1719 161.861 75.5352 161.861C75.8985 161.861 76.2582 161.932 76.5939 162.071C76.9295 162.21 77.2345 162.414 77.4914 162.671C77.7482 162.928 77.952 163.233 78.091 163.568C78.2301 163.904 78.3016 164.264 78.3016 164.627C78.3016 164.841 78.3865 165.046 78.5377 165.197C78.6888 165.348 78.8939 165.433 79.1076 165.433C79.3214 165.433 79.5264 165.348 79.6775 165.197C79.8287 165.046 79.9136 164.841 79.9136 164.627C79.9233 163.455 79.468 162.326 78.6473 161.489C77.8266 160.652 76.7075 160.174 75.5352 160.16Z" fill="#8C8C8C" stroke="#263238" stroke-linecap="round" stroke-linejoin="round"/>
<path d="M78.9412 139.428C77.8668 139.44 76.8327 139.838 76.0281 140.551C75.2235 141.263 74.7022 142.241 74.5595 143.306C74.4168 144.371 74.6624 145.451 75.2512 146.35C75.84 147.249 76.7327 147.906 77.766 148.2L78.0052 146.583C77.4644 146.375 76.9996 146.007 76.6727 145.529C76.3457 145.051 76.1721 144.484 76.1748 143.905C76.1748 143.171 76.4662 142.468 76.985 141.949C77.5038 141.43 78.2075 141.138 78.9412 141.138C79.6749 141.138 80.3785 141.43 80.8973 141.949C81.4161 142.468 81.7076 143.171 81.7076 143.905C81.7076 144.119 81.7925 144.324 81.9437 144.475C82.0948 144.626 82.2998 144.711 82.5136 144.711C82.7273 144.711 82.9324 144.626 83.0835 144.475C83.2347 144.324 83.3196 144.119 83.3196 143.905C83.3321 142.731 82.8779 141.6 82.057 140.76C81.236 139.921 80.1153 139.441 78.9412 139.428Z" fill="#8C8C8C" stroke="#263238" stroke-linecap="round" stroke-linejoin="round"/>
<path d="M81.64 118.685C80.4682 118.697 79.3491 119.174 78.5282 120.01C77.7074 120.847 77.2519 121.975 77.2616 123.146C77.2598 124.069 77.5424 124.969 78.071 125.725C78.5996 126.48 79.3483 127.054 80.2152 127.369L80.418 125.7C79.9487 125.458 79.5549 125.092 79.2798 124.642C79.0046 124.192 78.8587 123.674 78.858 123.146C78.858 122.413 79.1495 121.709 79.6683 121.19C80.1871 120.672 80.8907 120.38 81.6244 120.38C82.3581 120.38 83.0617 120.672 83.5805 121.19C84.0993 121.709 84.3908 122.413 84.3908 123.146C84.3819 123.257 84.396 123.369 84.4323 123.474C84.4686 123.579 84.5264 123.676 84.6018 123.758C84.6773 123.84 84.7689 123.905 84.8709 123.949C84.9728 123.994 85.0829 124.017 85.1942 124.017C85.3055 124.017 85.4156 123.994 85.5175 123.949C85.6195 123.905 85.7111 123.84 85.7866 123.758C85.862 123.676 85.9197 123.579 85.9561 123.474C85.9924 123.369 86.0065 123.257 85.9976 123.146C86.0087 121.978 85.5565 120.852 84.7398 120.016C83.9232 119.18 82.8086 118.701 81.64 118.685Z" fill="#8C8C8C" stroke="#263238" stroke-linecap="round" stroke-linejoin="round"/>
<path d="M157.279 74.5128H159.554L161.958 80.3764H162.06L164.463 74.5128H166.739V83.24H164.949V77.5596H164.877L162.618 83.1974H161.399L159.141 77.5383H159.068V83.24H157.279V74.5128ZM170.091 83.3636C169.674 83.3636 169.302 83.2912 168.975 83.1463C168.648 82.9986 168.39 82.7812 168.199 82.4943C168.012 82.2045 167.918 81.8437 167.918 81.4119C167.918 81.0483 167.985 80.7429 168.118 80.4957C168.252 80.2486 168.434 80.0497 168.664 79.8991C168.894 79.7486 169.155 79.6349 169.448 79.5582C169.743 79.4815 170.053 79.4275 170.377 79.3963C170.758 79.3565 171.064 79.3196 171.297 79.2855C171.53 79.2486 171.699 79.1946 171.805 79.1236C171.91 79.0525 171.962 78.9474 171.962 78.8082V78.7826C171.962 78.5128 171.877 78.304 171.707 78.1562C171.539 78.0085 171.3 77.9346 170.991 77.9346C170.664 77.9346 170.404 78.0071 170.211 78.152C170.018 78.294 169.89 78.473 169.827 78.6889L168.148 78.5525C168.234 78.1548 168.401 77.8111 168.651 77.5213C168.901 77.2287 169.224 77.0042 169.618 76.848C170.016 76.6889 170.476 76.6094 170.999 76.6094C171.363 76.6094 171.711 76.652 172.043 76.7372C172.378 76.8224 172.675 76.9545 172.934 77.1335C173.195 77.3125 173.401 77.5426 173.552 77.8238C173.702 78.1023 173.778 78.4361 173.778 78.8253V83.24H172.056V82.3324H172.005C171.9 82.5369 171.759 82.7173 171.583 82.8736C171.407 83.027 171.195 83.1477 170.948 83.2358C170.701 83.321 170.415 83.3636 170.091 83.3636ZM170.611 82.1108C170.878 82.1108 171.114 82.0582 171.319 81.9531C171.523 81.8451 171.684 81.7003 171.8 81.5184C171.917 81.3366 171.975 81.1307 171.975 80.9005V80.2059C171.918 80.2429 171.84 80.277 171.741 80.3082C171.644 80.3366 171.535 80.3636 171.412 80.3892C171.29 80.4119 171.168 80.4332 171.046 80.4531C170.924 80.4701 170.813 80.4858 170.714 80.5C170.501 80.5312 170.314 80.5809 170.155 80.6491C169.996 80.7173 169.873 80.8096 169.785 80.9261C169.697 81.0398 169.653 81.1818 169.653 81.3523C169.653 81.5994 169.742 81.7883 169.921 81.919C170.103 82.0469 170.333 82.1108 170.611 82.1108ZM177.997 83.24V74.5128H179.843V81.7187H183.584V83.24H177.997ZM187.755 83.3679C187.082 83.3679 186.502 83.2315 186.016 82.9588C185.533 82.6832 185.161 82.294 184.9 81.7912C184.638 81.2855 184.508 80.6875 184.508 79.9971C184.508 79.3238 184.638 78.7329 184.9 78.2244C185.161 77.7159 185.529 77.3196 186.003 77.0355C186.481 76.7514 187.04 76.6094 187.682 76.6094C188.114 76.6094 188.516 76.679 188.888 76.8182C189.263 76.9545 189.59 77.1605 189.868 77.4361C190.15 77.7116 190.368 78.0582 190.525 78.4758C190.681 78.8906 190.759 79.3764 190.759 79.9332V80.4318H185.232V79.3068H189.05C189.05 79.0454 188.993 78.8139 188.88 78.6122C188.766 78.4105 188.609 78.2528 188.407 78.1392C188.208 78.0227 187.976 77.9645 187.712 77.9645C187.437 77.9645 187.192 78.0284 186.979 78.1562C186.769 78.2812 186.604 78.4503 186.485 78.6633C186.366 78.8736 186.305 79.1079 186.302 79.3665V80.4361C186.302 80.7599 186.361 81.0398 186.481 81.2755C186.603 81.5113 186.775 81.6932 186.996 81.821C187.218 81.9488 187.481 82.0128 187.785 82.0128C187.986 82.0128 188.171 81.9844 188.339 81.9275C188.506 81.8707 188.65 81.7855 188.769 81.6719C188.888 81.5582 188.979 81.419 189.042 81.2542L190.721 81.365C190.636 81.7684 190.461 82.1207 190.197 82.4219C189.935 82.7201 189.597 82.9531 189.182 83.1207C188.77 83.2855 188.295 83.3679 187.755 83.3679ZM194.901 83.3679C194.231 83.3679 193.654 83.2258 193.171 82.9417C192.691 82.6548 192.322 82.2571 192.063 81.7486C191.807 81.24 191.68 80.6548 191.68 79.9929C191.68 79.3224 191.809 78.7344 192.067 78.2287C192.329 77.7201 192.699 77.3238 193.18 77.0398C193.66 76.7528 194.231 76.6094 194.893 76.6094C195.464 76.6094 195.964 76.713 196.393 76.9204C196.822 77.1278 197.161 77.419 197.411 77.794C197.661 78.169 197.799 78.6094 197.824 79.115H196.111C196.063 78.7883 195.935 78.5255 195.728 78.3267C195.523 78.125 195.255 78.0241 194.922 78.0241C194.641 78.0241 194.395 78.1008 194.185 78.2542C193.978 78.4048 193.816 78.625 193.699 78.9148C193.583 79.2045 193.525 79.5554 193.525 79.9673C193.525 80.3849 193.582 80.74 193.695 81.0326C193.812 81.3253 193.975 81.5483 194.185 81.7017C194.395 81.8551 194.641 81.9318 194.922 81.9318C195.13 81.9318 195.316 81.8892 195.481 81.804C195.648 81.7187 195.786 81.5951 195.894 81.4332C196.005 81.2684 196.077 81.071 196.111 80.8409H197.824C197.796 81.3409 197.66 81.7812 197.415 82.1619C197.174 82.5398 196.84 82.8352 196.414 83.0483C195.988 83.2613 195.484 83.3679 194.901 83.3679ZM194.475 83.2059H195.31L195.242 83.5767C195.535 83.6221 195.773 83.7315 195.958 83.9048C196.145 84.0781 196.241 84.3139 196.243 84.6122C196.246 85.0355 196.05 85.3721 195.655 85.6221C195.261 85.875 194.707 86.0014 193.993 86.0014L193.976 85.1917C194.334 85.1917 194.614 85.1477 194.816 85.0596C195.02 84.9744 195.127 84.8409 195.136 84.6591C195.141 84.4858 195.074 84.3537 194.935 84.2628C194.796 84.1719 194.579 84.1079 194.283 84.071L194.475 83.2059ZM201.944 83.3679C201.282 83.3679 200.71 83.2273 200.227 82.946C199.747 82.6619 199.376 82.267 199.115 81.7613C198.853 81.2528 198.723 80.6633 198.723 79.9929C198.723 79.3167 198.853 78.7258 199.115 78.2201C199.376 77.7116 199.747 77.3167 200.227 77.0355C200.71 76.7514 201.282 76.6094 201.944 76.6094C202.606 76.6094 203.177 76.7514 203.657 77.0355C204.14 77.3167 204.512 77.7116 204.774 78.2201C205.035 78.7258 205.166 79.3167 205.166 79.9929C205.166 80.6633 205.035 81.2528 204.774 81.7613C204.512 82.267 204.14 82.6619 203.657 82.946C203.177 83.2273 202.606 83.3679 201.944 83.3679ZM201.953 81.9616C202.254 81.9616 202.505 81.8764 202.707 81.7059C202.909 81.5326 203.061 81.2969 203.163 80.9986C203.268 80.7003 203.321 80.3608 203.321 79.9801C203.321 79.5994 203.268 79.2599 203.163 78.9616C203.061 78.6633 202.909 78.4275 202.707 78.2542C202.505 78.0809 202.254 77.9943 201.953 77.9943C201.649 77.9943 201.393 78.0809 201.186 78.2542C200.981 78.4275 200.826 78.6633 200.721 78.9616C200.619 79.2599 200.568 79.5994 200.568 79.9801C200.568 80.3608 200.619 80.7003 200.721 80.9986C200.826 81.2969 200.981 81.5326 201.186 81.7059C201.393 81.8764 201.649 81.9616 201.953 81.9616ZM208.161 79.4559V83.24H206.346V76.6946H208.076V77.8494H208.153C208.298 77.4687 208.541 77.1676 208.882 76.946C209.223 76.7216 209.636 76.6094 210.122 76.6094C210.576 76.6094 210.973 76.7088 211.311 76.9076C211.649 77.1065 211.911 77.3906 212.099 77.7599C212.286 78.1264 212.38 78.5639 212.38 79.0724V83.24H210.565V79.3963C210.568 78.9957 210.465 78.6832 210.258 78.4588C210.051 78.2315 209.765 78.1179 209.401 78.1179C209.157 78.1179 208.941 78.1704 208.754 78.2755C208.569 78.3807 208.424 78.5341 208.319 78.7358C208.217 78.9346 208.164 79.1747 208.161 79.4559Z" fill="#263238"/>
<path d="M94.12 137.572V127.024H96.3583V135.734H100.897V137.572H94.12Z" fill="#263238"/>
<path d="M102.379 137.572V127.024H109.513V128.863H104.618V131.376H109.146V133.215H104.618V135.734H109.534V137.572H102.379Z" fill="#263238"/>
<path d="M120.633 130.717H118.369C118.328 130.425 118.243 130.166 118.116 129.939C117.988 129.709 117.825 129.514 117.625 129.352C117.425 129.191 117.194 129.067 116.932 128.981C116.674 128.895 116.393 128.853 116.089 128.853C115.542 128.853 115.064 128.988 114.658 129.259C114.251 129.527 113.936 129.919 113.712 130.434C113.488 130.945 113.376 131.567 113.376 132.298C113.376 133.05 113.488 133.682 113.712 134.194C113.939 134.705 114.256 135.091 114.663 135.352C115.069 135.613 115.54 135.744 116.074 135.744C116.374 135.744 116.651 135.704 116.906 135.625C117.165 135.546 117.394 135.431 117.594 135.28C117.794 135.126 117.959 134.939 118.09 134.719C118.224 134.499 118.317 134.248 118.369 133.967L120.633 133.977C120.575 134.461 120.428 134.928 120.194 135.378C119.963 135.825 119.651 136.225 119.258 136.578C118.869 136.928 118.404 137.207 117.863 137.413C117.325 137.615 116.717 137.716 116.038 137.716C115.094 137.716 114.249 137.504 113.505 137.078C112.764 136.652 112.178 136.036 111.747 135.229C111.32 134.422 111.106 133.445 111.106 132.298C111.106 131.148 111.323 130.169 111.758 129.362C112.192 128.556 112.781 127.941 113.526 127.519C114.27 127.093 115.107 126.88 116.038 126.88C116.651 126.88 117.22 126.966 117.744 127.137C118.271 127.309 118.738 127.56 119.145 127.889C119.551 128.216 119.882 128.616 120.137 129.089C120.395 129.563 120.561 130.106 120.633 130.717ZM115.485 137.541H116.498L116.415 137.989C116.77 138.044 117.06 138.177 117.284 138.386C117.511 138.595 117.626 138.88 117.63 139.241C117.633 139.753 117.396 140.159 116.917 140.462C116.438 140.767 115.766 140.92 114.901 140.92L114.88 139.941C115.314 139.941 115.654 139.888 115.898 139.782C116.146 139.679 116.276 139.517 116.286 139.298C116.293 139.088 116.212 138.928 116.043 138.819C115.874 138.709 115.61 138.631 115.252 138.587L115.485 137.541Z" fill="#263238"/>
<path d="M131.967 132.298C131.967 133.448 131.748 134.427 131.31 135.234C130.876 136.041 130.283 136.657 129.532 137.083C128.784 137.505 127.944 137.716 127.01 137.716C126.069 137.716 125.224 137.504 124.477 137.078C123.729 136.652 123.138 136.036 122.704 135.229C122.269 134.422 122.052 133.445 122.052 132.298C122.052 131.148 122.269 130.169 122.704 129.362C123.138 128.556 123.729 127.941 124.477 127.519C125.224 127.093 126.069 126.88 127.01 126.88C127.944 126.88 128.784 127.093 129.532 127.519C130.283 127.941 130.876 128.556 131.31 129.362C131.748 130.169 131.967 131.148 131.967 132.298ZM129.698 132.298C129.698 131.553 129.586 130.925 129.362 130.413C129.141 129.902 128.829 129.514 128.426 129.249C128.023 128.985 127.551 128.853 127.01 128.853C126.469 128.853 125.996 128.985 125.593 129.249C125.19 129.514 124.876 129.902 124.652 130.413C124.432 130.925 124.322 131.553 124.322 132.298C124.322 133.043 124.432 133.672 124.652 134.183C124.876 134.695 125.19 135.083 125.593 135.347C125.996 135.612 126.469 135.744 127.01 135.744C127.551 135.744 128.023 135.612 128.426 135.347C128.829 135.083 129.141 134.695 129.362 134.183C129.586 133.672 129.698 133.043 129.698 132.298Z" fill="#263238"/>
<path d="M142.48 127.024V137.572H140.547L135.941 130.933H135.863V137.572H133.625V127.024H135.589L140.159 133.658H140.252V127.024H142.48Z" fill="#263238"/>
</g>
<defs>
<clipPath id="clip0_3055_2643">
<rect width="390" height="260" fill="white"/>
</clipPath>
</defs>
</svg>
