<svg width="12" height="15" viewBox="0 0 12 15" fill="none" xmlns="http://www.w3.org/2000/svg">
<path fill-rule="evenodd" clip-rule="evenodd" d="M4.76967 1.36747C4.83223 0.495157 5.68588 -0.179366 6.60594 0.0426763L6.85713 0.104251C7.30272 0.212473 7.69827 0.529676 7.83108 1.00455C8.04281 1.76583 8.34404 3.34719 7.89075 5.21215C8.03247 5.19317 8.17462 5.17731 8.31709 5.16457C9.00329 5.10393 9.92334 5.0974 10.7385 5.36049C11.237 5.52189 11.6951 5.99583 11.8934 6.54814C12.0705 7.04447 12.0474 7.63222 11.6682 8.16494C11.724 8.27596 11.7673 8.39071 11.801 8.5036C11.8751 8.7555 11.9097 9.03258 11.9097 9.3022C11.9097 9.57183 11.8751 9.84891 11.801 10.1008C11.7635 10.2268 11.7144 10.3555 11.647 10.4777C11.8097 10.8388 11.75 11.2418 11.6441 11.5487C11.5357 11.8518 11.3771 12.1357 11.1745 12.3893C11.2264 12.5311 11.2476 12.6804 11.2476 12.8232C11.2476 13.1077 11.162 13.4062 11.0041 13.674C10.6827 14.2207 10.0446 14.6667 9.14283 14.6667V13.7337C9.68467 13.7337 10.01 13.48 10.1688 13.2113C10.2409 13.0936 10.281 12.96 10.2852 12.8232C10.2852 12.7112 10.2515 12.6692 10.2467 12.6646L9.90602 12.3343L10.2457 12.004C10.4402 11.8165 10.6374 11.5273 10.7318 11.2539C10.8319 10.9629 10.7731 10.8425 10.7269 10.7987L10.3872 10.4684L10.7269 10.1381C10.7683 10.0989 10.828 10.0075 10.8752 9.84425C10.9214 9.68845 10.9473 9.49906 10.9473 9.3022C10.9473 9.10535 10.9214 8.91596 10.8752 8.76016C10.827 8.59783 10.7683 8.50546 10.7269 8.46628L10.3872 8.13602L10.7269 7.80575C11.0667 7.47735 11.0859 7.14056 10.9839 6.85414C10.8665 6.52761 10.6028 6.3009 10.4344 6.24586C9.80593 6.04341 9.04178 6.03688 8.40371 6.09286C8.04968 6.12482 7.69804 6.1781 7.35084 6.25239L7.33736 6.25519L7.33448 6.25612C7.25088 6.27625 7.16325 6.27426 7.08072 6.25036C6.99818 6.22645 6.92379 6.18151 6.86528 6.12023C6.80678 6.05894 6.76632 5.98355 6.74813 5.90194C6.72994 5.82032 6.73467 5.73547 6.76185 5.65624C7.24615 4.23035 7.29462 2.6991 6.9014 1.24711C6.87252 1.14356 6.77821 1.04653 6.62422 1.00921L6.37207 0.948571C6.07758 0.876734 5.75421 1.09411 5.73015 1.43184C5.65797 2.44129 5.50014 3.43768 5.26627 4.09075C5.09881 4.55909 4.68594 5.27373 4.07482 5.93519C3.46177 6.59945 2.61293 7.25065 1.55909 7.52867C1.17991 7.62942 0.962404 7.89811 0.962404 8.13508V11.8687C0.962404 12.1113 1.17413 12.3492 1.49461 12.3819C2.739 12.5097 3.35783 12.8763 3.89196 13.1917L3.93046 13.215C4.19031 13.368 4.40685 13.4911 4.67728 13.5816C4.94387 13.6703 5.2836 13.7337 5.77442 13.7337H9.14283V14.6667H5.77442C5.19217 14.6667 4.74465 14.5911 4.36354 14.4633C4.03583 14.3473 3.72268 14.1958 3.43001 14.0117L3.38381 13.9837C2.89876 13.6973 2.42237 13.4156 1.39356 13.3102C0.656359 13.2337 0 12.6571 0 11.8678V8.13602C0 7.34301 0.659247 6.80003 1.30598 6.6293C2.12306 6.41286 2.8208 5.89507 3.35783 5.31384C3.89677 4.72888 4.23746 4.11967 4.35776 3.78474C4.54928 3.24829 4.70038 2.34893 4.76967 1.3684V1.36747Z" fill="black"/>
</svg>
